<?xml version="1.0" encoding="utf-8"?>
<svg version="1.0" id="Layer_1" xmlns="http://www.w3.org/2000/svg" width="800px" height="800px" viewBox="0 0 64 64" enable-background="new 0 0 64 64">
  <g style="" transform="matrix(0.721147, 0, 0, 0.754155, 0.679869, -2.076029)">
    <path d="M28,12h8c15.41,0,15.984,14.379,16,16H12C12,27.348,12.184,12,28,12z" style="fill: rgb(226, 211, 211);"/>
    <polygon points="56,44 48,44 16,44 8,44 8,36 16,36 48,36 56,36 &#9;" style="fill: rgb(1, 11, 12);"/>
    <path d="M60,28c0-8.301-5.016-24-24-24h-8C9.016,4,4,19.699,4,28c-2.211,0-4,1.789-4,4v16c0,2.211,1.789,4,4,4h4v4 c0,2.211,1.789,4,4,4h4c2.211,0,4-1.789,4-4v-4h24v4c0,2.211,1.789,4,4,4h4c2.211,0,4-1.789,4-4v-4h4c2.211,0,4-1.789,4-4V32 C64,29.789,62.211,28,60,28z M28,12h8c15.41,0,15.984,14.379,16,16H12C12,27.348,12.184,12,28,12z M56,44h-8H16H8v-8h8h32h8V44z" style="fill: rgb(210, 29, 29);"/>
    <circle cx="48" cy="40" r="4" style="fill: rgb(226, 211, 211);"/>
    <circle cx="16" cy="40" r="4" style="fill: rgb(226, 211, 211);"/>
  </g>
  <g transform="matrix(0.721147, 0, 0, 0.760225, 17.357172, 18.008999)">
    <path d="M27,8h10c17.495,0,18,21.544,18,24h2c0-2.661-0.533-26-19-26H26C18.904,6,7,9.378,7,32h2 C9,16.523,15.393,8,27,8z" fill="#45AAB8"/>
    <path d="M58,34H6c-2.206,0-4,1.794-4,4v10c0,2.206,1.794,4,4,4h52c2.206,0,4-1.794,4-4V38 C62,35.794,60.206,34,58,34z" fill="#45AAB8"/>
  </g>
  <g transform="matrix(0.721147, 0, 0, 0.760225, 17.357172, 18.008999)">
    <path d="M50.581,19.394C47.909,13.16,43.34,10,37,10H27c-7.299,0-16,3.816-16,22h5c0-4.418,3.582-8,8-8 s8,3.582,8,8h21C53,30.367,52.825,24.632,50.581,19.394z" fill="#F9EBB2"/>
    <path d="M24,26c-3.313,0-6,2.687-6,6h12C30,28.687,27.313,26,24,26z" fill="#F9EBB2"/>
  </g>
  <g transform="matrix(0.721147, 0, 0, 0.760225, 17.357172, 18.008999)">
    <path d="M58.982,32.088C58.985,32.057,59,32.031,59,32c0-2.866-0.589-28-21-28H26C12.654,4,5,14.206,5,32 c0,0.031,0.015,0.057,0.018,0.088C2.176,32.559,0,35.027,0,38v10c0,3.309,2.691,6,6,6v5c0,0.553,0.447,1,1,1h8 c0.553,0,1-0.447,1-1v-5h32v5c0,0.553,0.447,1,1,1h8c0.553,0,1-0.447,1-1v-5c3.309,0,6-2.691,6-6V38 C64,35.027,61.824,32.559,58.982,32.088z M26,6h12c18.467,0,19,23.339,19,26h-2c0-2.456-0.505-24-18-24H27C15.393,8,9,16.523,9,32 H7C7,9.378,18.904,6,26,6z M24,24c-4.418,0-8,3.582-8,8h-5c0-18.184,8.701-22,16-22h10c6.34,0,10.909,3.16,13.581,9.394 C52.825,24.632,53,30.367,53,32H32C32,27.582,28.418,24,24,24z M30,32H18c0-3.313,2.687-6,6-6S30,28.687,30,32z M14,58H8v-4h6V58z M56,58h-6v-4h6V58z M62,48c0,2.206-1.794,4-4,4H6c-2.206,0-4-1.794-4-4V38c0-2.206,1.794-4,4-4h52c2.206,0,4,1.794,4,4V48z" fill="#394240"/>
    <path d="M11,39c-2.206,0-4,1.794-4,4s1.794,4,4,4s4-1.794,4-4S13.206,39,11,39z M11,45c-1.103,0-2-0.897-2-2 s0.897-2,2-2s2,0.897,2,2S12.103,45,11,45z" fill="#394240"/>
    <path d="M53,39c-2.206,0-4,1.794-4,4s1.794,4,4,4s4-1.794,4-4S55.206,39,53,39z M53,45c-1.103,0-2-0.897-2-2 s0.897-2,2-2s2,0.897,2,2S54.103,45,53,45z" fill="#394240"/>
    <path d="M43,40H21c-0.553,0-1,0.447-1,1s0.447,1,1,1h22c0.553,0,1-0.447,1-1S43.553,40,43,40z" fill="#394240"/>
    <path d="M43,44H21c-0.553,0-1,0.447-1,1s0.447,1,1,1h22c0.553,0,1-0.447,1-1S43.553,44,43,44z" fill="#394240"/>
    <path d="M43.293,18.708c0.195,0.195,0.451,0.293,0.707,0.293s0.512-0.098,0.707-0.293 c0.391-0.391,0.391-1.023,0-1.414l-2-2c-0.391-0.391-1.023-0.391-1.414,0s-0.391,1.023,0,1.414L43.293,18.708z" fill="#394240"/>
    <path d="M43.293,23.707C43.488,23.902,43.744,24,44,24s0.512-0.098,0.707-0.293c0.391-0.391,0.391-1.023,0-1.414 l-7-7c-0.391-0.391-1.023-0.391-1.414,0s-0.391,1.023,0,1.414L43.293,23.707z" fill="#394240"/>
  </g>
  <g transform="matrix(0.721147, 0, 0, 0.760225, 17.357172, 18.008999)">
    <rect x="8" y="54" width="6" height="4" fill="#506C7F"/>
    <rect x="50" y="54" width="6" height="4" fill="#506C7F"/>
  </g>
  <g transform="matrix(0.721147, 0, 0, 0.760225, 17.357172, 18.008999)">
    <circle cx="11" cy="43" r="2" fill="#F9EBB2"/>
    <circle cx="53" cy="43" r="2" fill="#F9EBB2"/>
  </g>
  <path opacity="0.15" d="M 38.992 42.336 L 30.338 42.336 C 30.338 39.818 32.276 37.775 34.665 37.775 C 37.054 37.775 38.992 39.818 38.992 42.336 Z" fill="#231F20"/>
</svg>