<?xml version="1.0" encoding="iso-8859-1"?>
<!-- Uploaded to: SVG Repo, www.svgrepo.com, Generator: SVG Repo Mixer Tools -->
<svg height="800px" width="800px" version="1.1" id="Layer_1" xmlns="http://www.w3.org/2000/svg" xmlns:xlink="http://www.w3.org/1999/xlink" 
	 viewBox="0 0 512 512" xml:space="preserve">
<path style="fill:#0055B8;" d="M256.001,118.099c60.804,0,101.762-91.485,101.762-91.485c4.582-10.233-0.844-18.608-12.057-18.608
	H166.295c-11.212,0-16.638,8.373-12.056,18.608C154.239,26.614,195.199,118.099,256.001,118.099z"/>
<path style="fill:#0071CE;" d="M492.319,324.209c0-130.517-105.804-236.321-236.319-236.321S19.682,193.692,19.682,324.209
	c0,130.516,76.886,179.785,236.319,179.785S492.319,454.726,492.319,324.209z"/>
<path style="fill:#FF9E16;" d="M483.238,259.119H28.763c-5.912,20.676-9.082,42.513-9.082,65.091c0,6.737,0.217,13.244,0.627,19.551
	h471.384c0.411-6.307,0.628-12.815,0.628-19.551C492.319,301.633,489.15,279.795,483.238,259.119z"/>
<circle style="fill:#FFFFFF;" cx="255.997" cy="298.664" r="144.016"/>
<path style="fill:#00A8E1;" d="M258.545,182.449c7.764,0,13.929,6.152,13.929,13.922v3.745c14.456,2.146,27.316,6.431,38.83,12.86
	c5.086,2.944,9.635,8.028,9.635,16.065c0,10.174-8.033,17.94-18.213,17.94c-3.216,0-6.423-0.803-9.369-2.411
	c-7.498-4.015-14.994-7.226-22.224-9.101v40.703c40.698,10.976,58.109,27.585,58.109,57.57c0,29.991-23.031,49.272-56.768,53.025
	v14.19c0,7.767-6.164,13.926-13.929,13.926c-7.767,0-13.923-6.158-13.923-13.926v-14.458c-19.013-2.413-36.957-9.105-52.751-18.746
	c-5.627-3.483-9.111-8.836-9.111-16.067c0-10.443,8.036-18.211,18.482-18.211c3.485,0,7.233,1.342,10.447,3.483
	c11.246,7.23,21.961,12.318,34.276,14.996v-42.576c-38.565-10.444-57.576-25.171-57.576-57.041c0-29.456,22.493-49.27,56.236-52.756
	v-3.209C244.622,188.601,250.778,182.449,258.545,182.449z M245.962,269.207v-36.151c-12.855,1.876-18.478,8.301-18.478,16.869
	C227.485,258.225,231.232,263.851,245.962,269.207z M271.133,316.072v37.219c12.58-1.873,19.012-7.769,19.012-17.408
	C290.145,327.049,285.59,321.158,271.133,316.072z"/>
<path style="fill:#1E252B;" d="M428.764,151.444c-29.298-29.3-64.734-50.227-103.402-61.613
	c24.622-26.639,39.032-58.435,39.708-59.946c3.314-7.402,3.062-14.969-0.693-20.765C360.621,3.323,353.816,0,345.706,0H166.295
	c-8.11,0-14.915,3.323-18.669,9.119c-3.755,5.795-4.007,13.364-0.694,20.766c0.677,1.512,15.086,33.307,39.708,59.946
	c-38.668,11.386-74.103,32.313-103.403,61.613C37.09,197.591,11.675,258.947,11.675,324.209c0,67.432,20.167,114.959,61.652,145.298
	C112.425,498.1,172.178,512,256,512s143.575-13.9,182.673-42.493c41.485-30.339,61.652-77.866,61.652-145.298
	C500.325,258.947,474.911,197.591,428.764,151.444z M161.546,23.342c-1.038-2.319-1.218-4.381-0.483-5.517
	c0.736-1.135,2.691-1.813,5.232-1.813h179.411c2.541,0,4.497,0.678,5.232,1.814c0.736,1.135,0.555,3.197-0.48,5.511
	c-0.168,0.376-16.533,36.414-43.038,61.95c-5.112-1.09-10.266-2.03-15.465-2.794c9.853-17.161,16.303-34.099,17.332-37.875
	c1.164-4.266-1.351-8.667-5.617-9.831c-4.263-1.164-8.667,1.351-9.831,5.617c-0.857,3.137-8.42,22.696-19.397,40.159
	c-6.106-0.453-12.255-0.683-18.44-0.683c-6.185,0-12.336,0.231-18.441,0.684c-10.979-17.47-18.54-37.023-19.395-40.159
	c-1.163-4.266-5.563-6.781-9.831-5.619c-4.266,1.164-6.782,5.565-5.618,9.831c1.029,3.775,7.478,20.71,17.333,37.876
	c-5.199,0.763-10.353,1.704-15.464,2.793C178.079,59.752,161.712,23.713,161.546,23.342z M429.22,456.583
	c-36.256,26.516-92.918,39.404-173.22,39.404s-136.963-12.889-173.22-39.404c-37.071-27.111-55.092-70.411-55.092-132.374
	c0-60.985,23.749-118.32,66.871-161.443S195.015,95.895,256,95.895s118.319,23.749,161.441,66.871
	c43.123,43.123,66.872,100.459,66.872,161.443C484.313,386.172,466.292,429.471,429.22,456.583z M256.003,146.639
	c-83.827,0-152.025,68.199-152.025,152.025c0,83.824,68.198,152.02,152.025,152.02c83.824,0,152.019-68.196,152.019-152.02
	C408.023,214.838,339.827,146.639,256.003,146.639z M256.003,434.673c-74.998,0-136.013-61.013-136.013-136.008
	c0-74.998,61.015-136.013,136.013-136.013c74.995,0,136.006,61.015,136.006,136.013
	C392.011,373.659,330.998,434.673,256.003,434.673z"/>
</svg>