<?xml version="1.0" encoding="utf-8"?>
<svg width="800px" height="800px" viewBox="-4.05 0 315.686 315.686" xmlns="http://www.w3.org/2000/svg">
  <defs>
    <style>.a{fill:none;}.b{fill:#ffffff;}.c{fill:#211715;}.d{fill:#aaa;}.e{fill:#5393ce;}.f{fill:#7a7473;}</style>
  </defs>
  <path class="a" d="M 86.918 210.156 C 96.313 216.656 111.845 223.994 128.893 224.035 C 144.286 224.077 161.844 217.294 169.367 210.983" style=""/>
  <path class="b" d="M 175.064 129.465 C 176.552 128.055 178.527 127.314 180.551 127.406 C 184.483 127.549 186.156 129.728 186.876 131.009 C 189.024 134.831 188.934 141.872 187.491 146.229 C 186.47 149.315 184.797 154.034 180.762 157.42 C 178.967 158.951 176.629 159.643 174.314 159.328 L 173.695 159.22 C 173.087 161.326 172.346 163.389 171.476 165.396 C 170.085 169.268 163.349 181.379 154.335 188.77 L 154.335 195.067 C 153.254 195.965 131.189 213.803 129.516 215.016 L 127.572 216.428 L 125.629 215.016 C 123.956 213.8 101.892 195.962 100.81 195.067 C 100.81 195.067 100.81 192.765 100.81 190.339 C 96.822 187.58 93.257 184.227 90.234 180.391 C 85.213 174.171 81.487 166.963 79.286 159.211 C 76.815 159.747 74.242 159.086 72.308 157.421 C 68.274 154.035 66.601 149.316 65.579 146.23 C 64.136 141.873 64.046 134.832 66.195 131.01 C 66.915 129.731 68.587 127.549 72.519 127.407 C 74.543 127.314 76.519 128.056 78.006 129.466 C 78.006 129.466 68.094 80.339 128.329 80.339 C 188.565 80.339 175.064 129.465 175.064 129.465 Z" style="fill: rgb(244, 234, 170);"/>
  <path class="c" d="M 148.992 193.583 C 149.334 197.099 149.673 200.983 151.281 204.178 C 152.022 205.617 153.104 206.842 154.429 207.739 C 155.184 208.262 156.118 208.445 156.863 208.943 C 156.646 208.798 156.285 208.687 156.683 208.866 L 157.019 209.012 L 158.052 209.465 C 158.905 209.839 159.758 210.215 160.61 210.59 C 162.544 211.443 164.478 212.295 166.412 213.148 C 167.773 213.745 169.127 214.396 170.512 214.938 C 171.75 215.277 173.025 214.535 173.376 213.271 C 173.689 212.003 172.971 210.708 171.75 210.335 C 171.667 210.303 171.589 210.266 171.508 210.233 C 171.097 210.063 172.026 210.459 171.721 210.325 L 171.356 210.167 C 170.705 209.882 170.054 209.597 169.404 209.31 C 167.618 208.525 165.832 207.739 164.046 206.951 C 162.505 206.269 160.963 205.591 159.421 204.918 C 158.051 204.321 156.789 203.858 155.894 202.76 C 155.954 202.834 156.091 203.057 155.804 202.638 C 155.71 202.501 155.623 202.358 155.539 202.212 C 155.401 201.974 155.148 201.458 155.11 201.367 C 154.885 200.738 154.699 200.096 154.553 199.443 C 154.128 197.513 153.825 195.556 153.648 193.586 C 153.613 192.283 152.591 191.235 151.32 191.199 C 150.038 191.208 149.001 192.271 148.992 193.586 L 148.992 193.583 Z" style=""/>
  <path class="c" d="M 101.363 193.773 C 101.105 196.287 100.797 199.646 99.685 201.721 C 99.277 202.604 98.627 203.347 97.814 203.858 C 97.704 203.926 96.823 204.389 97.096 204.258 C 97.345 204.136 97.104 204.258 97.046 204.28 C 96.718 204.423 96.387 204.563 96.058 204.706 C 93.358 205.867 90.66 207.029 87.963 208.194 C 85.769 209.138 83.576 210.232 81.311 210.995 C 80.09 211.37 79.373 212.664 79.685 213.931 C 80.038 215.194 81.311 215.935 82.549 215.599 C 85.054 214.754 87.479 213.535 89.909 212.491 C 92.649 211.314 95.387 210.134 98.124 208.953 C 100.619 207.88 102.697 206.341 103.883 203.761 C 105.291 200.685 105.674 197.115 106.016 193.774 C 106.008 192.46 104.971 191.396 103.688 191.387 C 102.414 191.416 101.388 192.468 101.36 193.774 L 101.363 193.773 Z" style=""/>
  <path class="d" d="M 86.888 100.086 C 85.737 101.389 84.737 102.824 83.909 104.363 C 80.614 110.377 83.086 126.119 78.754 130.364 C 77.277 128.382 74.942 127.275 72.512 127.404 C 71.71 127.426 70.914 127.556 70.145 127.791 C 68.344 120.941 67.116 113.507 67.361 107.573 C 68.18 87.699 74.436 75.751 84.683 67.396 C 85.075 67.076 85.437 66.72 85.763 66.33 C 94.608 55.78 110.025 48.126 126.394 48.963 C 139.426 49.629 149.828 53.011 158.768 59.465 L 161.798 61.652 L 166.318 65.839 C 175.713 74.54 184.194 88.106 185.02 108.118 C 185.298 114.867 184.521 120.37 182.704 127.726 C 182.001 127.533 181.279 127.426 180.551 127.404 C 178.527 127.312 176.552 128.053 175.064 129.463 L 173.823 129.18 C 173.739 120.454 169.187 100.051 157.67 95.876 C 155.01 94.853 144.557 91.699 139.213 90.948 C 131.962 89.936 125.206 91.103 117.961 92.163 C 113.202 92.861 108.261 93.435 101.794 93.893 C 95.799 94.165 91.145 95.76 87.53 99.404 C 87.313 99.624 87.099 99.852 86.888 100.086 Z" style="fill: rgb(252, 225, 4);"/>
  <path class="c" d="M 79.643 127.777 C 76.382 124.788 71.661 124.171 67.772 126.225 C 65.005 127.683 63.444 130.595 62.77 133.607 C 61.295 140.998 62.815 148.687 66.981 154.905 C 69.881 159.219 74.04 162.407 79.369 161.63 C 80.616 161.447 81.298 159.823 80.995 158.693 C 80.626 157.444 79.366 156.711 78.131 157.026 C 75.249 157.452 72.712 154.942 71.18 152.757 C 69.698 150.567 68.563 148.15 67.817 145.596 C 66.94 142.766 66.645 139.78 66.95 136.827 C 67.052 135.454 67.364 134.106 67.874 132.832 C 67.791 133.023 68.092 132.41 68.137 132.328 C 68.227 132.163 68.323 132.006 68.419 131.846 C 68.728 131.335 68.295 131.918 68.545 131.651 C 68.718 131.464 68.877 131.268 69.06 131.086 C 69.157 130.989 69.261 130.895 69.364 130.808 C 69.176 130.969 69.272 130.875 69.413 130.779 C 69.708 130.57 70.02 130.389 70.346 130.237 C 70.931 130.015 71.541 129.871 72.161 129.81 C 73.68 129.632 75.201 130.119 76.351 131.151 C 78.56 133.219 81.862 129.853 79.643 127.775 L 79.643 127.777 Z" style=""/>
  <path class="c" d="M 176.71 131.153 C 178.69 129.475 181.507 129.322 183.648 130.777 C 183.963 130.989 183.594 130.67 183.927 131.015 C 184.086 131.179 184.245 131.339 184.399 131.508 C 184.482 131.594 184.553 131.694 184.628 131.789 C 184.575 131.722 184.378 131.375 184.557 131.714 C 184.649 131.884 184.767 132.044 184.863 132.213 C 185.45 133.369 185.836 134.621 186.002 135.913 C 186.866 141.359 185.337 147.152 182.567 151.702 C 181.006 154.267 178.247 157.511 174.93 157.026 C 173.696 156.72 172.443 157.45 172.067 158.693 C 171.766 159.813 172.44 161.446 173.692 161.63 C 182.417 162.908 187.456 154.042 189.774 146.737 C 190.914 142.921 191.175 138.886 190.538 134.948 C 190.055 131.752 188.797 128.716 186.18 126.786 C 182.378 123.982 176.789 124.62 173.418 127.777 C 171.2 129.854 174.499 133.222 176.71 131.153 L 176.71 131.153 Z" style=""/>
  <path class="c" d="M 172.363 154.933 C 171.909 157.115 171.305 159.261 170.558 161.356 C 169.983 163.015 169.554 163.712 169.023 165.298 C 168.927 165.584 169.294 164.706 169.098 165.113 C 169.051 165.209 169.014 165.311 168.969 165.408 C 168.886 165.6 168.797 165.789 168.709 165.978 C 168.46 166.514 168.196 167.044 167.925 167.569 C 167.316 168.748 166.664 169.903 165.985 171.041 C 162.564 177.018 158.174 182.354 153.004 186.819 C 150.188 189.282 146.861 191.055 143.277 192.002 C 140.358 192.688 141.593 197.293 144.515 196.606 C 151.886 194.872 158.021 189.316 162.821 183.578 C 166.931 178.824 170.365 173.498 173.02 167.757 C 173.257 167.218 173.468 166.667 173.69 166.121 C 173.392 166.853 173.663 166.213 173.721 166.079 C 173.86 165.755 173.994 165.426 174.127 165.099 C 174.325 164.61 174.515 164.117 174.696 163.622 C 175.607 161.212 176.33 158.732 176.858 156.205 C 177.168 154.938 176.452 153.645 175.233 153.268 C 173.994 152.931 172.721 153.672 172.368 154.936 L 172.363 154.933 Z" style=""/>
  <path class="c" d="M 76.069 156.022 C 77.686 163.413 80.606 170.439 84.688 176.753 C 89.082 183.499 94.853 189.818 101.842 193.759 C 105.365 195.756 109.207 197.09 113.188 197.698 C 114.422 198.004 115.676 197.275 116.052 196.031 C 116.353 194.907 115.677 193.283 114.425 193.094 C 107.909 192.051 101.857 188.996 97.077 184.337 C 91.35 178.921 86.807 172.322 83.748 164.976 C 82.385 161.674 81.317 158.252 80.559 154.752 C 79.899 151.757 75.408 153.025 76.069 156.022 Z" style=""/>
  <path class="c" d="M 159.941 57.405 C 151.589 51.413 141.888 48.217 131.819 47.03 C 126.375 46.334 120.865 46.405 115.44 47.239 C 110.403 48.081 105.506 49.638 100.89 51.867 C 96.41 54.006 92.246 56.781 88.521 60.111 C 86.75 61.695 85.284 63.541 83.602 65.203 C 82.188 66.601 80.587 67.789 79.19 69.218 C 73.481 75.19 69.409 82.6 67.384 90.701 C 65.958 96.324 65.164 102.096 65.018 107.904 C 64.808 114.493 66.068 121.177 67.666 127.53 C 68.414 130.502 72.904 129.242 72.155 126.26 C 70.709 120.937 69.872 115.459 69.661 109.936 C 69.605 105.004 70.088 100.081 71.1 95.259 C 71.89 91.201 73.162 87.258 74.888 83.519 C 76.442 80.22 78.43 77.157 80.797 74.414 C 81.993 73.043 83.27 71.749 84.622 70.54 C 85.363 69.876 86.181 69.28 86.888 68.579 C 87.697 67.774 88.399 66.852 89.187 66.022 C 92.312 62.771 95.878 60.002 99.776 57.798 C 108.341 52.934 118.099 50.725 127.865 51.439 C 138.513 52.164 148.789 55.215 157.586 61.527 C 158.698 62.18 160.115 61.799 160.771 60.67 C 161.393 59.529 161.026 58.088 159.939 57.404 L 159.941 57.405 Z" style=""/>
  <path class="c" d="M 185.151 127.53 C 186.445 122.454 187.195 117.249 187.386 112.006 C 187.48 106.87 187.015 101.739 185.998 96.708 C 184.365 88.37 181.018 80.485 176.18 73.577 C 173.764 70.154 171.011 66.997 167.963 64.153 C 165.749 62.092 162.446 65.459 164.671 67.529 C 169.894 72.33 174.148 78.135 177.192 84.615 C 180.819 92.562 182.713 101.224 182.742 109.998 C 182.726 115.487 182.028 120.952 180.664 126.26 C 179.949 129.244 184.438 130.517 185.153 127.53 L 185.151 127.53 Z" style=""/>
  <path class="c" d="M 117.593 171.367 C 120.511 172.913 123.76 173.683 127.044 173.607 C 130.422 173.585 133.845 172.907 136.552 170.745 C 137.545 169.952 137.364 168.202 136.552 167.369 C 135.63 166.469 134.182 166.469 133.26 167.369 C 133.957 166.812 133.384 167.26 133.205 167.378 C 133.025 167.496 132.817 167.62 132.616 167.728 C 132.463 167.814 131.754 168.106 132.367 167.871 C 132.096 167.975 131.83 168.083 131.554 168.173 C 130.813 168.416 130.052 168.594 129.281 168.705 C 129.605 168.658 129.134 168.719 129.026 168.73 C 128.802 168.753 128.58 168.772 128.356 168.787 C 127.818 168.823 127.275 168.837 126.74 168.833 C 126.257 168.833 125.775 168.815 125.293 168.78 C 125.072 168.764 124.851 168.746 124.628 168.723 C 124.628 168.723 123.854 168.617 124.269 168.682 C 123.551 168.571 122.841 168.41 122.145 168.199 C 121.847 168.108 121.557 167.999 121.264 167.895 C 121.168 167.862 121.077 167.81 120.979 167.782 C 121.561 167.953 121.185 167.876 121.022 167.797 C 120.658 167.621 120.297 167.437 119.941 167.245 C 118.828 166.608 117.423 166.984 116.756 168.098 C 116.12 169.237 116.49 170.688 117.587 171.364 L 117.593 171.367 Z" style=""/>
  <path class="c" d="M 125.927 148.45 C 126.366 150.074 126.718 151.721 126.979 153.385 L 126.896 152.75 C 126.927 152.976 126.934 153.204 126.914 153.432 L 126.997 152.797 C 126.983 152.902 126.958 153.004 126.924 153.104 L 127.159 152.533 C 127.13 152.602 127.095 152.668 127.054 152.73 L 127.417 152.248 C 127.371 152.306 127.318 152.359 127.26 152.406 L 127.731 152.033 C 127.609 152.111 127.482 152.18 127.351 152.24 L 127.907 151.999 C 127.701 152.09 127.485 152.154 127.264 152.191 L 127.883 152.106 C 127.683 152.13 127.48 152.13 127.28 152.106 L 127.899 152.191 C 127.672 152.159 127.448 152.102 127.221 152.07 C 126.614 151.925 125.977 152.011 125.427 152.311 C 124.318 152.977 123.946 154.439 124.595 155.577 C 124.893 156.122 125.396 156.519 125.986 156.674 C 126.492 156.744 126.984 156.876 127.495 156.899 C 128.262 156.904 129.019 156.72 129.703 156.363 C 130.574 155.96 131.221 155.174 131.462 154.225 C 131.617 153.46 131.609 152.669 131.439 151.907 C 131.177 150.317 130.819 148.742 130.42 147.183 C 129.943 145.411 127.775 144.832 126.517 146.141 C 125.932 146.748 125.709 147.629 125.93 148.451 L 125.927 148.45 Z" style=""/>
  <path class="c" d="M 100.346 134.514 C 99.543 137.191 100.067 143.352 105.014 143.876 C 111.554 143.836 111.902 136.387 109.7 132.886 C 107.898 130.02 102.598 128.826 100.346 134.514 Z" style=""/>
  <path class="c" d="M 152.715 134.514 C 153.519 137.191 152.995 143.352 148.047 143.876 C 141.507 143.835 141.159 136.387 143.361 132.885 C 145.167 130.02 150.463 128.826 152.715 134.514 Z" style=""/>
  <path class="c" d="M 140.844 165.722 C 141.122 165.997 141.38 166.293 141.616 166.607 L 141.252 166.124 C 141.761 166.826 142.183 167.59 142.507 168.399 L 142.272 167.83 C 142.388 168.114 142.497 168.4 142.597 168.688 C 142.774 169.281 143.154 169.787 143.667 170.115 C 144.777 170.781 146.203 170.399 146.853 169.262 C 147.173 168.707 147.257 168.043 147.087 167.422 C 146.497 165.521 145.487 163.785 144.136 162.349 C 143.694 161.91 143.106 161.66 142.49 161.65 C 141.874 161.655 141.283 161.905 140.844 162.349 C 140.408 162.797 140.163 163.404 140.162 164.037 C 140.169 164.669 140.414 165.273 140.844 165.725 L 140.844 165.722 Z" style=""/>
  <path class="c" d="M 176.151 129.182 C 176.008 124.146 175.18 119.156 173.691 114.355 C 172.046 108.804 169.651 103.277 165.852 98.911 C 163.803 96.516 161.204 94.682 158.29 93.576 C 157.051 93.238 155.777 93.98 155.426 95.243 C 155.111 96.511 155.829 97.807 157.052 98.179 C 157.142 98.213 157.889 98.532 157.517 98.359 C 157.751 98.468 157.982 98.583 158.21 98.705 C 158.766 99.002 159.303 99.335 159.817 99.702 C 160.154 99.926 160.47 100.18 160.762 100.461 C 161.253 100.898 161.721 101.361 162.166 101.847 C 163.805 103.69 165.18 105.763 166.251 108.004 C 168.479 112.631 170.028 117.571 170.847 122.663 C 170.955 123.287 171.048 123.912 171.141 124.538 C 171.212 125.011 171.156 124.635 171.141 124.538 C 171.164 124.709 171.184 124.884 171.205 125.057 C 171.241 125.36 171.273 125.662 171.303 125.965 C 171.41 127.034 171.479 128.106 171.492 129.18 C 171.532 132.249 176.188 132.259 176.148 129.18 L 176.151 129.182 Z" style=""/>
  <path class="c" d="M 148.538 91.942 C 147.702 88.804 146.77 85.586 144.731 83.027 C 143.828 81.981 142.789 81.067 141.643 80.312 C 140.399 79.399 139.057 78.636 137.644 78.037 C 136.405 77.69 135.125 78.435 134.78 79.704 C 134.477 80.97 135.191 82.259 136.407 82.641 C 135.663 82.335 136.512 82.702 136.705 82.804 C 136.989 82.954 137.267 83.115 137.543 83.28 C 138.117 83.625 138.676 83.995 139.222 84.388 C 139.498 84.583 139.766 84.788 140.037 84.991 C 140.277 85.171 139.669 84.683 139.993 84.958 C 140.101 85.051 140.213 85.141 140.321 85.236 C 140.521 85.406 140.714 85.592 140.898 85.785 C 141.059 85.955 141.243 86.296 141.438 86.407 C 141.248 86.302 141.157 86.014 141.407 86.373 C 141.49 86.49 141.566 86.608 141.642 86.728 C 141.786 86.955 141.921 87.189 142.049 87.426 C 142.176 87.663 142.308 87.926 142.426 88.183 C 142.494 88.329 142.557 88.476 142.622 88.624 C 142.833 89.098 142.471 88.212 142.639 88.671 C 143.184 90.164 143.637 91.678 144.048 93.215 C 144.524 94.987 146.693 95.566 147.951 94.257 C 148.535 93.65 148.759 92.769 148.538 91.947 L 148.538 91.942 Z" style=""/>
  <path class="c" d="M 136.118 90.96 C 134.515 88.674 132.607 86.629 130.449 84.886 C 128.563 83.45 126.53 82.23 124.385 81.246 C 122.397 80.353 120.322 79.677 118.196 79.229 C 115.953 78.623 113.64 78.334 111.321 78.37 C 110.047 78.398 109.02 79.45 108.993 80.757 C 109.004 82.07 110.04 83.132 111.321 83.144 C 113.223 83.087 115.123 83.32 116.959 83.832 C 118.002 84.073 119.037 84.35 120.062 84.67 C 120.486 84.803 120.908 84.942 121.326 85.097 C 121.526 85.169 121.723 85.249 121.922 85.323 C 122.525 85.545 121.522 85.122 122.035 85.371 C 126.119 87.352 129.374 89.64 132.096 93.372 C 132.769 94.477 134.165 94.852 135.281 94.229 C 136.382 93.556 136.752 92.102 136.112 90.963 L 136.118 90.96 Z" style=""/>
  <path class="c" d="M 101.795 91.508 C 97.935 91.587 94.135 92.501 90.643 94.19 C 87.368 95.964 84.616 98.604 82.671 101.837 C 79.139 107.479 79.739 114.768 79.156 121.189 C 79.073 122.142 78.977 122.953 78.886 123.542 C 78.763 124.366 78.596 125.183 78.387 125.988 C 78.298 126.322 78.195 126.649 78.089 126.977 C 78.089 126.977 77.863 127.589 78 127.242 C 78.119 126.942 77.844 127.578 77.814 127.638 C 77.683 127.899 77.517 128.137 77.377 128.393 C 77.121 128.861 77.616 128.137 77.394 128.369 C 77.266 128.502 77.145 128.641 77.013 128.769 C 74.819 130.872 78.116 134.242 80.305 132.145 C 82.301 130.231 83.015 127.244 83.409 124.572 C 83.902 121.234 84.039 117.863 84.271 114.499 C 84.482 111.437 84.53 108.922 85.684 106.007 C 85.476 106.532 85.807 105.777 85.873 105.649 C 86.076 105.26 86.302 104.882 86.53 104.506 C 86.971 103.768 87.463 103.062 88.001 102.395 C 88.957 101.202 90.077 100.159 91.327 99.297 C 94.43 97.216 98.049 96.469 101.789 96.285 C 103.064 96.258 104.091 95.205 104.117 93.898 C 104.105 92.585 103.07 91.524 101.789 91.511 L 101.795 91.508 Z" style=""/>
  <path class="e" d="M 173.508 212.237 L 166.603 210.153 L 164.476 210.153 C 164.555 210.937 164.469 211.729 164.222 212.475 C 161.309 217.579 158.066 222.478 154.516 227.138 L 138.662 226.953 C 135.411 222.489 131.815 217.671 129.517 215.018 L 125.629 215.018 C 123.327 217.673 119.731 222.491 116.483 226.953 L 100.63 227.138 C 97.08 222.478 93.837 217.579 90.924 212.475 C 90.678 211.729 90.593 210.936 90.675 210.153 L 88.547 210.153 L 81.641 212.237 C 63.894 218.08 46.533 226.119 35.791 242.577 C 27.437 255.358 23.138 269.959 19.484 286.218 L 235.655 286.218 C 232.002 269.959 227.701 255.357 219.359 242.577 C 208.618 226.119 191.257 218.08 173.508 212.237 Z" style="fill: rgb(208, 24, 44);"/>
  <path class="c" d="M 21.729 286.853 C 25.29 271.041 29.761 254.776 39.322 241.551 C 47.983 229.573 61.216 222.284 74.598 217.228 C 79.392 215.419 84.259 213.933 89.155 212.454 C 92.023 211.588 90.803 206.979 87.918 207.85 C 76.477 211.304 65.072 215.16 54.766 221.447 C 48.222 225.34 42.377 230.355 37.487 236.274 C 32.307 242.703 28.463 250.128 25.378 257.814 C 21.785 266.765 19.361 276.163 17.239 285.583 C 16.565 288.572 21.053 289.845 21.729 286.852 L 21.729 286.853 Z" style=""/>
  <path class="b" d="M 43.274 164.068 C 38.729 158.921 34.169 153.7 29.596 148.406 L 25.691 177.841 C 58.476 211.048 95.506 251.081 134.525 282.385 C 137.639 282.335 140.692 282.312 143.671 282.312 C 149.112 282.312 154.812 282.39 160.67 282.549 C 125.609 252.313 85.063 211.375 43.274 164.068 Z" style="fill: rgb(136, 61, 37);"/>
  <path class="c" d="M 27.949 150.094 C 45.414 170.312 63.316 190.123 81.655 209.526 C 98.13 226.893 115 243.878 132.426 260.244 C 141.073 268.367 149.875 276.312 158.834 284.08 C 159.757 284.977 161.204 284.977 162.127 284.08 C 163.025 283.143 163.025 281.64 162.127 280.704 C 145.513 266.358 129.511 251.275 113.904 235.791 C 95.984 218.015 78.546 199.746 61.59 180.985 C 51.33 169.698 41.214 158.275 31.243 146.718 C 29.975 145.419 27.811 146.013 27.348 147.788 C 27.132 148.612 27.362 149.491 27.95 150.094 L 27.949 150.094 Z" style=""/>
  <path class="c" d="M 24.046 179.528 C 37.545 193.204 50.857 207.072 64.37 220.736 C 78.471 234.997 92.777 249.061 107.639 262.491 C 115.909 269.963 124.351 277.233 133.034 284.198 C 133.96 285.089 135.401 285.089 136.327 284.198 C 137.132 283.372 137.325 281.621 136.327 280.822 C 120.757 268.33 105.95 254.866 91.544 240.993 C 77.261 227.24 63.374 213.064 49.528 198.851 C 42.143 191.27 34.747 183.704 27.338 176.153 C 25.205 173.991 21.911 177.365 24.046 179.528 Z" style=""/>
  <path class="c" d="M 237.9 285.583 C 234.237 269.32 229.557 252.421 219.64 238.871 C 210.316 226.135 196.704 218.325 182.385 212.855 C 177.397 210.948 172.325 209.392 167.222 207.851 C 164.342 206.982 163.111 211.588 165.984 212.455 C 176.95 215.765 187.846 219.416 197.749 225.404 C 204.004 229.1 209.589 233.876 214.257 239.522 C 219.084 245.475 222.712 252.588 225.532 259.739 C 228.985 268.498 231.341 277.663 233.41 286.849 C 234.085 289.842 238.575 288.575 237.9 285.58 L 237.9 285.583 Z" style=""/>
  <path class="b" d="M 100.807 195.067 C 98.261 197.988 95.12 202.269 92.629 205.228 C 91.162 206.97 90.083 210.168 90.918 212.474 C 91.874 214.435 102.458 231.835 109.585 236.515 C 111.837 233.439 121.164 220.163 125.626 215.017 C 123.953 213.803 101.89 195.965 100.807 195.067 Z" style="fill: rgb(234, 31, 31);"/>
  <path class="b" d="M 154.332 195.067 C 156.879 197.988 160.018 202.269 162.51 205.228 C 163.977 206.97 165.056 210.168 164.222 212.474 C 163.264 214.435 152.682 231.835 145.555 236.515 C 143.302 233.439 133.975 220.163 129.513 215.017 C 131.186 213.803 153.25 195.965 154.332 195.067 Z" style="fill: rgb(234, 31, 31);"/>
  <path class="c" d="M 118.487 228.161 C 121.318 224.276 124.141 220.344 127.273 216.707 C 128.315 215.588 128.086 213.768 126.801 212.956 C 126.445 212.695 126.099 212.418 125.753 212.145 L 125.337 211.814 C 125.069 211.602 125.782 212.167 125.332 211.814 L 124.168 210.888 C 122.219 209.332 120.272 207.772 118.33 206.206 C 114.134 202.83 109.944 199.449 105.758 196.061 C 104.657 195.17 103.549 194.286 102.457 193.382 C 101.538 192.473 100.083 192.473 99.164 193.382 C 97.231 195.613 95.439 197.967 93.611 200.288 C 91.802 202.589 89.731 204.676 88.807 207.54 C 87.993 209.829 88.192 212.369 89.354 214.495 C 90.4 216.334 91.536 218.121 92.688 219.892 C 94.678 222.951 96.775 225.93 98.981 228.83 C 99.755 229.848 101.461 229.663 102.273 228.83 C 103.151 227.884 103.151 226.399 102.273 225.454 C 100.12 222.624 98.11 219.673 96.186 216.673 C 94.986 214.992 93.915 213.219 92.981 211.369 C 93.127 211.699 92.989 211.454 92.989 211.307 C 92.963 210.893 92.963 210.477 92.989 210.063 C 93.065 209.518 93.204 208.985 93.405 208.474 C 94.059 207.153 94.91 205.945 95.929 204.894 C 98.099 202.175 100.182 199.38 102.459 196.752 L 99.166 196.752 C 106.185 202.564 113.328 208.228 120.445 213.913 C 121.775 214.975 123.085 216.074 124.457 217.078 L 123.985 213.327 C 120.589 217.267 117.539 221.538 114.472 225.747 C 113.831 226.886 114.202 228.341 115.303 229.013 C 116.417 229.647 117.819 229.272 118.489 228.161 L 118.487 228.161 Z" style=""/>
  <path class="c" d="M 140.673 225.751 C 137.606 221.543 134.556 217.271 131.159 213.331 L 130.688 217.082 C 133.859 214.761 136.874 212.18 139.939 209.715 C 144.169 206.313 148.395 202.903 152.616 199.485 C 153.738 198.577 154.866 197.676 155.978 196.757 L 152.686 196.757 C 154.962 199.384 157.046 202.179 159.216 204.898 C 160.174 206.098 161.186 207.051 161.739 208.479 C 161.94 208.989 162.08 209.522 162.155 210.067 C 162.182 210.481 162.182 210.897 162.155 211.311 C 162.155 211.456 162.018 211.704 162.163 211.373 C 161.23 213.223 160.158 214.996 158.958 216.677 C 157.034 219.675 155.024 222.625 152.871 225.458 C 152.002 226.407 152.002 227.885 152.871 228.834 C 153.675 229.659 155.386 229.857 156.164 228.834 C 159.548 224.423 162.665 219.803 165.5 215.002 C 165.82 214.489 166.104 213.954 166.351 213.4 C 166.897 211.876 166.989 210.22 166.618 208.641 C 166.047 205.635 164.113 203.544 162.295 201.256 C 160.202 198.623 158.181 195.925 155.976 193.385 C 155.056 192.482 153.605 192.482 152.684 193.385 C 145.729 199.144 138.649 204.757 131.598 210.392 C 131.159 210.741 130.721 211.091 130.282 211.44 L 129.71 211.895 L 129.896 211.748 L 129.588 211.992 C 129.172 212.318 128.762 212.652 128.341 212.963 C 127.056 213.775 126.827 215.594 127.87 216.714 C 131.005 220.351 133.823 224.283 136.655 228.168 C 137.33 229.272 138.726 229.645 139.84 229.021 C 140.942 228.348 141.312 226.893 140.672 225.755 L 140.673 225.751 Z" style=""/>
  <path class="f" d="M 190.647 296.623 C 190.647 262.096 165.005 233.025 128.234 233.025 C 91.332 233.025 65.825 262.331 65.825 296.623 L 48.472 296.457 C 48.472 252.626 81.073 215.169 128.24 215.169 C 175.239 215.169 208.013 252.328 208.013 296.457 L 190.647 296.623 Z" style=""/>
  <path class="c" d="M 210.337 296.457 C 210.384 279.354 205.415 262.632 196.076 248.461 C 186.65 234.419 173.186 223.743 157.56 217.924 C 140.55 211.724 122.088 211.062 104.697 216.026 C 88.651 220.608 74.413 230.24 63.992 243.562 C 53.682 256.948 47.54 273.206 46.365 290.22 C 46.217 292.298 46.148 294.38 46.144 296.462 C 46.139 299.531 50.795 299.539 50.8 296.462 C 50.762 280.3 55.467 264.499 64.303 251.115 C 73.122 237.956 85.721 227.944 100.348 222.47 C 116.475 216.575 133.984 215.927 150.484 220.613 C 165.655 224.928 179.12 234.02 188.979 246.606 C 198.594 259.119 204.335 274.297 205.463 290.184 C 205.611 292.275 205.682 294.369 205.685 296.465 C 205.69 299.534 210.346 299.542 210.341 296.465 L 210.337 296.457 Z" style=""/>
  <path class="c" d="M 192.975 296.623 C 193.011 283.137 189.093 269.952 181.729 258.779 C 174.28 247.691 163.642 239.264 151.298 234.673 C 137.889 229.795 123.338 229.282 109.634 233.207 C 97.032 236.815 85.848 244.375 77.647 254.828 C 69.489 265.387 64.622 278.221 63.679 291.657 C 63.559 293.309 63.504 294.964 63.5 296.619 C 63.494 299.688 68.15 299.696 68.156 296.619 C 68.127 284.11 71.759 271.88 78.581 261.509 C 85.402 251.298 95.156 243.518 106.488 239.251 C 119.004 234.653 132.599 234.129 145.417 237.751 C 157.245 241.094 167.742 248.179 175.413 257.996 C 182.846 267.702 187.282 279.463 188.152 291.771 C 188.266 293.386 188.319 295.004 188.319 296.623 C 188.325 299.692 192.981 299.7 192.975 296.623 Z" style=""/>
  <path class="b" d="M 220.237 280.899 C 219.528 271.063 215.581 262.196 206.662 255.108 C 205.35 254.075 203.886 253.262 202.325 252.7 C 193.008 249.29 179.978 253.728 174.943 262.776 C 174.32 263.909 173.935 265.163 173.812 266.457 C 171.381 265.829 168.806 266.52 166.987 268.288 C 165.647 269.907 164.953 273.189 165.246 275.292 C 165.797 278.655 166.907 281.897 168.526 284.876 C 169.945 287.447 172.503 289.142 175.373 289.411 C 177.555 289.832 179.782 289.952 181.995 289.768 C 181.982 290.419 182.036 291.069 182.157 291.707 C 182.458 293.713 183.535 295.51 185.145 296.691 C 187.346 298.086 191.162 297.415 193.109 296.383 L 193.494 296.179 L 193.014 296.776 C 191.23 299.007 193.379 303.237 194.997 304.335 C 199.66 307.499 205.078 304.646 210.358 302.052 C 214.432 300.051 218.247 295.939 219.359 291.977 C 220.251 288.797 220.636 286.426 220.237 280.899 Z" style="fill: rgb(244, 234, 170);"/>
  <path class="c" d="M 175.377 287.021 C 170.61 286.49 168.808 280.653 167.85 276.572 C 167.328 274.681 167.443 272.664 168.178 270.848 C 168.422 270.019 169.045 269.364 169.848 269.094 C 170.898 268.612 172.073 268.495 173.195 268.76 C 176.112 269.442 177.359 264.838 174.433 264.156 C 170.957 263.349 166.762 264.307 164.68 267.488 C 163.009 270.294 162.461 273.655 163.152 276.866 C 163.761 280.33 165.015 283.642 166.844 286.621 C 168.773 289.586 171.913 291.491 175.377 291.797 C 176.659 291.789 177.696 290.725 177.705 289.41 C 177.676 288.104 176.65 287.052 175.377 287.023 L 175.377 287.021 Z" style=""/>
  <path class="c" d="M 176.159 272.17 C 173.64 274.949 172.287 278.826 173.537 282.548 C 174.026 284.255 175.082 285.733 176.523 286.725 C 178.051 287.655 179.801 288.129 181.577 288.097 C 185.485 288.086 188.886 285.998 192.303 284.312 C 195.733 282.618 199.182 280.96 202.568 279.173 C 205.228 277.766 202.879 273.646 200.217 275.051 C 197.484 276.494 194.709 277.85 191.938 279.213 C 189.306 280.507 186.646 282.206 183.818 282.993 C 182.639 283.348 181.393 283.405 180.188 283.157 C 179.258 283.047 178.464 282.42 178.124 281.526 C 177.257 279.521 177.874 277.292 179.454 275.546 C 181.492 273.298 178.207 269.913 176.161 272.17 L 176.159 272.17 Z" style=""/>
  <path class="c" d="M 181.948 284.016 C 179.301 287.129 179.112 291.21 180.745 294.889 C 182.157 298.167 185.445 300.163 188.927 299.855 C 192.471 299.663 195.367 297.846 198.499 296.334 C 201.853 294.833 205.125 293.143 208.298 291.272 C 210.847 289.667 208.511 285.537 205.948 287.149 C 203.423 288.667 200.815 290.038 198.139 291.255 C 196.705 291.944 195.269 292.628 193.846 293.34 C 193.172 293.681 192.507 294.034 191.834 294.373 C 191.693 294.439 191.7 294.441 191.854 294.378 C 191.696 294.443 191.538 294.503 191.377 294.559 C 191.121 294.648 190.862 294.728 190.6 294.797 C 188.584 295.333 186.557 295.394 185.369 293.625 C 184.135 291.786 183.717 289.182 185.241 287.392 C 186.119 286.447 186.119 284.961 185.241 284.016 C 184.326 283.096 182.862 283.096 181.948 284.016 L 181.948 284.016 Z" style=""/>
  <path class="c" d="M 191.004 295.578 C 189.329 297.874 190.025 301.12 191.272 303.439 C 192.619 305.908 195.022 307.582 197.757 307.958 C 201.156 308.492 204.384 307.416 207.475 306.058 C 210.457 304.878 213.253 303.255 215.774 301.242 C 218.082 299.31 219.908 296.842 221.1 294.042 C 221.927 291.893 222.437 289.63 222.612 287.327 C 223.076 281.801 222.424 276.237 220.696 270.982 C 218.92 265.632 215.96 260.776 212.049 256.795 C 208.481 253.146 204.464 250.299 199.4 249.506 C 190.143 248.057 179.957 251.836 174.243 259.558 C 172.612 261.639 171.639 264.182 171.455 266.846 C 171.304 269.853 172.641 273.202 175.362 274.635 C 178.324 276.197 181.204 274.75 183.899 273.34 C 186.846 271.799 189.862 270.395 192.844 268.929 C 194.129 268.297 195.41 267.658 196.679 266.995 C 199.35 265.6 196.996 261.479 194.329 262.872 C 191.943 264.12 189.517 265.285 187.095 266.465 C 184.659 267.653 182.269 269.022 179.795 270.118 C 179.046 270.452 178.16 270.788 177.571 270.459 C 176.862 269.996 176.372 269.253 176.218 268.406 C 175.908 266.585 176.336 264.712 177.404 263.222 C 179.45 260.151 182.293 257.728 185.611 256.225 C 188.945 254.623 192.599 253.847 196.279 253.96 C 198.019 253.997 199.743 254.313 201.388 254.898 C 202.957 255.461 204.42 256.297 205.711 257.37 C 209.466 260.408 212.54 264.238 214.725 268.601 C 216.599 272.584 217.692 276.905 217.94 281.32 C 218.018 282.491 218.072 283.664 218.068 284.837 C 218.068 285.409 218.051 285.981 218.016 286.552 C 218.003 286.769 217.986 286.986 217.967 287.203 C 217.959 287.293 217.868 288.099 217.925 287.673 C 217.56 292.289 215.054 296.444 211.19 298.841 C 208.658 300.501 205.919 301.805 203.047 302.717 C 201.712 303.213 200.292 303.422 198.874 303.33 C 198.298 303.27 197.733 303.121 197.2 302.889 C 196.95 302.778 196.723 302.625 196.487 302.492 C 195.702 302.047 196.551 302.69 196.209 302.303 C 195.62 301.674 195.171 300.923 194.891 300.1 C 194.573 299.077 194.543 298.66 195.027 297.996 C 195.668 296.858 195.297 295.403 194.196 294.731 C 193.083 294.097 191.68 294.472 191.011 295.583 L 191.004 295.578 Z" style=""/>
  <path class="b" d="M 88.152 268.288 C 86.333 266.52 83.758 265.829 81.328 266.457 C 81.205 265.163 80.819 263.909 80.196 262.776 C 75.161 253.728 62.132 249.291 52.815 252.697 C 51.254 253.259 49.79 254.071 48.477 255.104 C 39.557 262.192 35.611 271.06 34.902 280.895 C 34.503 286.422 34.888 288.793 35.78 291.978 C 36.891 295.94 40.706 300.051 44.782 302.053 C 50.06 304.647 55.48 307.5 60.141 304.336 C 61.76 303.238 63.909 299.008 62.125 296.777 L 61.645 296.18 L 62.03 296.384 C 63.978 297.415 67.794 298.089 69.995 296.692 C 71.604 295.511 72.682 293.714 72.983 291.708 C 73.104 291.069 73.158 290.42 73.145 289.769 C 75.358 289.953 77.585 289.833 79.766 289.412 C 82.636 289.143 85.195 287.448 86.614 284.877 C 88.233 281.896 89.342 278.653 89.894 275.288 C 90.186 273.189 89.492 269.908 88.152 268.288 Z" style="fill: rgb(244, 234, 170);"/>
  <path class="c" d="M 81.945 268.76 C 83.066 268.498 84.24 268.615 85.291 269.094 C 85.557 269.217 85.812 269.364 86.051 269.535 C 86.363 269.758 86.114 269.535 86.359 269.812 C 86.578 270.089 86.76 270.394 86.901 270.721 C 87.692 272.565 87.829 274.635 87.289 276.572 C 86.336 280.654 84.526 286.49 79.762 287.021 C 78.492 287.057 77.47 288.105 77.434 289.408 C 77.443 290.722 78.48 291.786 79.762 291.795 C 83.227 291.489 86.367 289.584 88.298 286.618 C 90.128 283.64 91.381 280.328 91.989 276.863 C 92.68 273.652 92.132 270.292 90.462 267.485 C 88.383 264.305 84.184 263.346 80.709 264.154 C 77.788 264.836 79.025 269.439 81.947 268.757 L 81.945 268.76 Z" style=""/>
  <path class="c" d="M 75.688 275.544 C 77.268 277.289 77.889 279.513 77.019 281.525 C 76.681 282.421 75.885 283.05 74.953 283.155 C 73.749 283.408 72.502 283.352 71.323 282.991 C 68.496 282.196 65.836 280.506 63.204 279.211 C 60.433 277.847 57.658 276.492 54.924 275.049 C 52.264 273.645 49.906 277.763 52.575 279.172 C 55.96 280.962 59.409 282.617 62.839 284.311 C 66.248 285.996 69.657 288.084 73.56 288.095 C 75.336 288.128 77.087 287.653 78.615 286.723 C 80.055 285.731 81.112 284.253 81.601 282.546 C 82.848 278.824 81.497 274.947 78.979 272.168 C 76.935 269.913 73.648 273.294 75.687 275.544 L 75.688 275.544 Z" style=""/>
  <path class="c" d="M 69.899 287.394 C 71.428 289.192 70.996 291.773 69.769 293.628 C 69.315 294.428 68.514 294.958 67.615 295.052 C 66.583 295.165 65.54 295.078 64.539 294.797 C 64.277 294.727 64.017 294.647 63.761 294.558 C 63.737 294.549 63.053 294.258 63.405 294.423 C 62.691 294.087 61.999 293.693 61.292 293.339 C 59.869 292.627 58.434 291.943 56.999 291.254 C 54.323 290.038 51.716 288.667 49.191 287.149 C 46.63 285.537 44.285 289.664 46.84 291.271 C 50.013 293.142 53.285 294.832 56.639 296.333 C 59.771 297.844 62.668 299.662 66.211 299.854 C 69.693 300.163 72.982 298.167 74.394 294.889 C 76.027 291.209 75.838 287.131 73.191 284.015 C 72.276 283.095 70.812 283.095 69.898 284.015 C 69.013 284.957 69.013 286.448 69.898 287.391 L 69.899 287.394 Z" style=""/>
  <path class="c" d="M 60.112 297.983 C 60.112 297.983 60.514 298.658 60.352 298.276 C 60.364 298.306 60.501 299.038 60.459 298.617 C 60.5 298.931 60.477 299.25 60.392 299.554 C 60.295 299.978 60.153 300.39 59.968 300.783 C 59.889 300.942 59.802 301.1 59.719 301.253 C 59.67 301.339 59.176 302.053 59.379 301.801 C 59.252 301.959 58.527 302.577 58.968 302.273 C 58.457 302.636 57.893 302.913 57.297 303.095 C 56.279 303.376 55.214 303.424 54.176 303.236 C 51.405 302.781 48.81 301.4 46.311 300.167 C 44.089 299.094 42.106 297.567 40.481 295.68 C 39.138 294.104 38.19 292.216 37.717 290.181 C 37.261 288.486 37.045 286.733 37.076 284.976 C 36.981 280.296 37.73 275.639 39.285 271.239 C 40.897 266.964 43.4 263.102 46.619 259.922 C 48.108 258.328 49.803 256.951 51.657 255.83 C 53.202 254.987 54.877 254.423 56.609 254.163 C 60.207 253.652 63.873 254.042 67.292 255.3 C 70.77 256.49 73.892 258.574 76.362 261.352 C 77.678 262.75 78.591 264.495 78.996 266.392 C 79.175 267.387 79.032 268.415 78.588 269.318 C 78.281 270.051 77.596 270.541 76.819 270.583 C 75.576 270.445 74.387 269.618 73.301 269.059 C 71.912 268.343 70.505 267.662 69.102 266.975 C 66.332 265.62 63.548 264.294 60.813 262.866 C 58.153 261.473 55.79 265.594 58.464 266.988 C 61.197 268.417 63.983 269.742 66.752 271.097 C 68.254 271.832 69.761 272.559 71.242 273.334 C 72.479 274.06 73.789 274.647 75.149 275.086 C 78.302 275.929 81.582 274.279 82.86 271.206 C 84.008 268.396 83.929 265.218 82.643 262.472 C 80.814 258.214 76.853 254.782 72.929 252.641 C 68.723 250.324 64.016 249.131 59.243 249.172 C 54.586 249.184 50.069 250.799 46.415 253.758 C 41.956 257.325 38.37 261.91 35.943 267.148 C 33.705 272.31 32.512 277.883 32.435 283.531 C 32.288 288.603 33.183 293.799 36.264 297.895 C 38.116 300.383 40.473 302.429 43.171 303.893 C 46.079 305.579 49.188 306.871 52.42 307.737 C 55.479 308.419 58.834 308.207 61.461 306.294 C 63.568 304.625 64.89 302.121 65.101 299.398 C 65.237 298.046 64.894 296.689 64.136 295.574 C 63.461 294.471 62.065 294.097 60.95 294.722 C 59.848 295.392 59.475 296.847 60.115 297.987 L 60.112 297.983 Z" style=""/>
  <path class="b" d="M 253.446 304.812 L 253.446 292.168 C 219.619 284.438 167.524 280.722 127.867 280.722 C 88.21 280.722 36.116 284.44 2.288 292.168 L 2.288 312.274 C 2.288 314.157 3.777 315.684 5.614 315.684 L 250.12 315.684 C 251.957 315.684 253.446 314.157 253.446 312.274 L 253.446 304.812 Z" style=""/>
  <path class="c" d="M 254.065 289.866 C 238.734 286.375 223.107 284.24 207.499 282.566 C 190.182 280.71 172.793 279.528 155.395 278.873 C 139.112 278.26 122.823 278.19 106.53 278.664 C 89.153 279.182 71.801 280.27 54.474 281.929 C 38.418 283.361 22.446 285.651 6.623 288.79 C 4.969 289.131 3.317 289.49 1.669 289.866 C -1.255 290.532 -0.017 295.136 2.907 294.47 C 18.008 291.182 33.281 288.787 48.649 287.297 C 65.829 285.466 83.08 284.297 100.339 283.647 C 116.623 283.034 132.911 282.964 149.204 283.438 C 166.372 283.95 183.515 285.018 200.632 286.641 C 216.484 288.041 232.253 290.294 247.874 293.393 C 249.528 293.734 251.18 294.093 252.827 294.47 C 255.747 295.135 256.993 290.533 254.065 289.866 Z" style=""/>
  <g id="Layer_1" style="transform-origin: 220.771px 196.46px;" transform="matrix(0.308322, 0.011329, -0.010814, 0.294293, 0.548547, -116.688179)">
    <path style="fill:#FFBD42;" d="M -2.178 296.596 L -3 297.418 L -34.617 426.176 C -36.387 433.385 -34.262 440.995 -29.013 446.244 L 59.229 358.002 L -2.178 296.596 Z"/>
    <path style="fill:#30767A;" d="M 467.369 27.277 L 389.952 -50.138 C 377.416 -62.674 357.092 -62.674 344.556 -50.138 L 275.95 18.468 L 265.872 28.546 L -3 297.417 L -34.617 426.176 C -36.387 433.385 -34.262 440.995 -29.013 446.244 C -23.764 451.493 -16.155 453.618 -8.945 451.848 L 119.814 420.231 L 388.687 151.358 L 398.765 141.28 L 467.371 72.674 C 479.905 60.137 479.905 39.813 467.369 27.277 Z"/>
    <path style="fill:#007066;" d="M 389.952 -50.138 C 377.416 -62.674 357.092 -62.674 344.556 -50.138 L 275.95 18.468 L 265.872 28.546 L -3 297.417 L -34.617 426.176 C -36.387 433.385 -34.262 440.995 -29.013 446.244 L 428.661 -11.43 L 389.952 -50.138 Z"/>
    <path style="fill:#4AB6BF;" d="M 389.952 -50.138 C 377.416 -62.674 357.092 -62.674 344.556 -50.138 L 275.95 18.468 L 265.872 28.546 L -3 297.417 L -34.617 426.176 C -36.387 433.385 -34.262 440.995 -29.013 446.244 L 428.661 -11.43 L 389.952 -50.138 Z"/>
    <path style="fill:#940009;" d="M 431.035 109.007 L 467.369 72.673 C 479.905 60.137 479.905 39.813 467.369 27.277 L 389.952 -50.138 C 377.416 -62.674 357.092 -62.674 344.556 -50.138 L 308.222 -13.804 L 431.035 109.007 Z"/>
    <path style="fill:#FF0029;" d="M 428.661 -11.43 L 389.952 -50.138 C 377.416 -62.674 357.092 -62.674 344.556 -50.138 L 308.222 -13.804 L 369.629 47.603 L 428.661 -11.43 Z"/>
    <path style="fill:#F7DC4D;" d="M -2.178 296.596 L -3 297.418 L -34.617 426.176 C -36.387 433.385 -34.262 440.995 -29.013 446.244 C -23.764 451.493 -16.155 453.618 -8.945 451.848 L 119.814 420.231 L 120.636 419.409 L -2.178 296.596 Z"/>
    <rect x="297.71" y="90.414" transform="matrix(-0.707107, -0.707107, 0.707107, -0.707107, 531.136414, 429.929138)" style="fill:#FF9800;" width="173.683" height="74.041"/>
    <polygon style="fill:#F7DC4D;" points="375.505 41.725 314.098 -19.68 275.95 18.467 265.873 28.545 261.742 32.677 323.148 94.082"/>
    <path style="fill:#2D2B27;" d="M -24.092 383.315 L -34.616 426.175 C -36.386 433.384 -34.261 440.994 -29.012 446.243 C -23.763 451.492 -16.154 453.617 -8.944 451.847 L 33.916 441.322 L -24.092 383.315 Z"/>
    <path style="fill:#403E3B;" d="M -24.092 383.315 L -34.616 426.175 C -36.386 433.384 -34.261 440.994 -29.012 446.243 L 4.913 412.318 L -24.092 383.315 Z"/>
  </g>
</svg>