<?xml version="1.0" encoding="iso-8859-1"?>
<!-- Uploaded to: SVG Repo, www.svgrepo.com, Generator: SVG Repo Mixer Tools -->
<svg height="800px" width="800px" version="1.1" id="Layer_1" xmlns="http://www.w3.org/2000/svg" xmlns:xlink="http://www.w3.org/1999/xlink" 
	 viewBox="0 0 392.663 392.663" xml:space="preserve">
<path style="fill:#FFFFFF;" d="M359.887,124.057H32.776c-6.012,0-10.925,4.848-10.925,10.925v224.97
	c0,6.012,4.848,10.925,10.925,10.925h327.111c6.012,0,10.925-4.848,10.925-10.925v-224.97
	C370.812,128.97,365.964,124.057,359.887,124.057z"/>
<path style="fill:#FFC10D;" d="M32.776,102.271h327.111c6.012,0,10.925-4.848,10.925-10.925V54.562
	c0-6.012-4.848-10.925-10.925-10.925H320.84v12.541c0,6.012-4.848,10.925-10.925,10.925c-6.012,0-10.925-4.848-10.925-10.925V43.572
	h-22.174v12.541c0,6.012-4.848,10.925-10.925,10.925c-6.077,0-10.925-4.848-10.925-10.925V43.572H137.697v12.541
	c0,6.012-4.848,10.925-10.925,10.925c-6.077,0-10.925-4.848-10.925-10.925V43.572H93.673v12.541c0,6.012-4.848,10.925-10.925,10.925
	c-6.012,0-10.925-4.848-10.925-10.925V43.572H32.776c-6.012,0-10.925,4.848-10.925,10.925v36.784
	C21.851,97.358,26.764,102.271,32.776,102.271z"/>
<path style="fill:#56ACE0;" d="M286.125,258.78c0,6.012,4.849,10.925,10.861,10.925h51.911v23.855h-30.772
	c-6.206,0-11.248,5.042-11.248,11.249c0,6.206,5.042,11.249,11.248,11.249h30.772v32.84H43.636v-101.43h30.707
	c6.206,0,11.248-5.042,11.248-11.248s-5.042-11.248-11.248-11.248H43.636v-24.436h51.911c6.012,0,10.925-4.848,10.925-10.925
	c0-6.012-4.848-10.861-10.925-10.861H43.636v-32.97h305.325v102.141h-51.911C290.974,247.855,286.125,252.768,286.125,258.78z"/>
<g>
	<path style="fill:#194F82;" d="M194.78,236.412c-0.129,0-0.129,0-0.065,0c-9.374-0.84-16.743-8.727-16.743-18.295
		c0-10.149,8.275-18.36,18.36-18.36c10.085,0,18.36,8.275,18.36,18.36c0,6.012,4.848,10.925,10.925,10.925
		c6.012,0,10.925-4.848,10.925-10.925c0-18.36-12.412-33.875-29.285-38.659v-8.404c0-6.012-4.848-10.925-10.925-10.925
		c-6.077,0-10.925,4.848-10.925,10.925v8.404c-16.873,4.784-29.285,20.234-29.285,38.659c0,22.174,18.036,40.21,40.21,40.21
		c0.129,0,0.129,0,0.065,0c9.438,0.84,18.295,8.598,18.295,18.166c0,10.15-8.275,18.36-18.36,18.36
		c-10.15,0-18.36-8.275-18.36-18.36c0-6.012-4.848-10.925-10.925-10.925c-6.012,0-10.925,4.848-10.925,10.925
		c0,18.36,12.412,33.875,29.285,38.659v8.339c0,6.012,4.848,10.925,10.925,10.925c6.077,0,10.925-4.848,10.925-10.925v-8.339
		c16.873-4.784,29.285-20.234,29.285-38.659C236.541,254.384,216.954,236.412,194.78,236.412z"/>
	<path style="fill:#194F82;" d="M196.396,258.327h-0.065C196.008,258.392,196.331,258.327,196.396,258.327z"/>
	<path style="fill:#194F82;" d="M194.715,236.412h0.065C195.168,236.347,194.844,236.412,194.715,236.412z"/>
</g>
<path d="M392.598,54.626c0-18.036-14.675-32.711-32.711-32.711H320.84v-10.99C320.776,4.913,315.863,0,309.851,0
	s-10.925,4.848-10.925,10.925v10.925h-22.174V10.925c0-6.012-4.913-10.925-10.99-10.925c-6.077,0-10.925,4.848-10.925,10.925v10.925
	H137.697V10.925C137.697,4.913,132.848,0,126.772,0c-6.077,0-10.925,4.848-10.925,10.925v10.925H93.673V10.925
	C93.608,4.913,88.76,0,82.683,0S71.758,4.848,71.758,10.925v10.925H32.776c-18.036,0-32.711,14.675-32.711,32.776V91.41
	c0,8.339,3.168,15.968,8.404,21.786c-5.236,5.818-8.404,13.446-8.404,21.786v224.97c0,18.036,14.675,32.711,32.711,32.711h327.111
	c18.036,0,32.711-14.675,32.711-32.711v-224.97c0-8.339-3.168-15.968-8.404-21.786c5.172-5.818,8.404-13.446,8.404-21.786V54.626
	C392.598,54.626,392.598,54.626,392.598,54.626z M370.812,359.887c0,6.012-4.848,10.925-10.925,10.925H32.776
	c-6.012,0-10.925-4.848-10.925-10.925v-224.97c0-6.012,4.848-10.925,10.925-10.925h327.111c6.012,0,10.925,4.848,10.925,10.925
	V359.887L370.812,359.887z M370.812,91.41c0,6.012-4.848,10.925-10.925,10.925H32.776c-6.012,0-10.925-4.848-10.925-10.925V54.626
	c0-6.012,4.848-10.925,10.925-10.925h39.111v12.541c0,6.012,4.848,10.925,10.925,10.925c6.012,0,10.925-4.848,10.925-10.925V43.636
	h22.174v12.541c0,6.012,4.848,10.925,10.925,10.925s10.925-4.848,10.925-10.925V43.636H255.16v12.541
	c0,6.012,4.848,10.925,10.925,10.925c6.077,0,10.925-4.848,10.925-10.925V43.636h22.174v12.541c0,6.012,4.848,10.925,10.925,10.925
	c6.012,0,10.925-4.848,10.925-10.925V43.636h39.046c6.012,0,10.925,4.848,10.925,10.925V91.41
	C371.006,91.41,370.812,91.41,370.812,91.41z"/>
<path style="fill:#194F82;" d="M392.598,54.626c0-18.036-14.675-32.711-32.711-32.711H320.84v-10.99
	C320.776,4.913,315.863,0,309.851,0s-10.925,4.848-10.925,10.925v10.925h-22.174V10.925c0-6.012-4.913-10.925-10.99-10.925
	c-6.077,0-10.925,4.848-10.925,10.925v10.925H137.697V10.925C137.697,4.913,132.848,0,126.772,0
	c-6.077,0-10.925,4.848-10.925,10.925v10.925H93.673V10.925C93.608,4.913,88.76,0,82.683,0S71.758,4.848,71.758,10.925v10.925
	H32.776c-18.036,0-32.711,14.675-32.711,32.776V91.41c0,8.339,3.168,15.968,8.404,21.786c-5.236,5.818-8.404,13.446-8.404,21.786
	v224.97c0,18.036,14.675,32.711,32.711,32.711h327.111c18.036,0,32.711-14.675,32.711-32.711v-224.97
	c0-8.339-3.168-15.968-8.404-21.786c5.172-5.818,8.404-13.446,8.404-21.786V54.626C392.598,54.626,392.598,54.626,392.598,54.626z
	 M370.812,359.887c0,6.012-4.848,10.925-10.925,10.925H32.776c-6.012,0-10.925-4.848-10.925-10.925v-224.97
	c0-6.012,4.848-10.925,10.925-10.925h327.111c6.012,0,10.925,4.848,10.925,10.925V359.887L370.812,359.887z M21.851,54.626
	c0-6.012,4.848-10.925,10.925-10.925h39.111v12.541c0,6.012,4.848,10.925,10.925,10.925c6.077,0,10.925-4.848,10.925-10.925V43.636
	h22.174v12.541c0,6.012,4.848,10.925,10.925,10.925s10.925-4.848,10.925-10.925V43.636H255.16v12.541
	c0,6.012,4.848,10.925,10.925,10.925c6.077,0,10.925-4.848,10.925-10.925V43.636h22.174v12.541c0,6.012,4.848,10.925,10.925,10.925
	c6.012,0,10.925-4.848,10.925-10.925V43.636h39.046c6.012,0,10.925,4.848,10.925,10.925v36.784c0,6.012-4.848,10.925-10.925,10.925
	H32.776c-6.012,0-10.925-4.848-10.925-10.925V54.626z"/>
</svg>