<?xml version="1.0" encoding="iso-8859-1"?>
<!-- Uploaded to: SVG Repo, www.svgrepo.com, Generator: SVG Repo Mixer Tools -->
<svg version="1.1" id="Layer_1" xmlns="http://www.w3.org/2000/svg" xmlns:xlink="http://www.w3.org/1999/xlink" 
	 viewBox="0 0 469.333 469.333" xml:space="preserve">
<path style="fill:#FFFFFF;" d="M309.333,352h-256c-23.563,0-42.667-19.104-42.667-42.667V96c0-23.563,19.104-42.667,42.667-42.667
	h256C332.896,53.333,352,72.437,352,96v213.333C352,332.896,332.896,352,309.333,352z"/>
<circle style="fill:#3AADD9;" cx="181.333" cy="202.667" r="85.333"/>
<g>
	<rect x="416" y="96" style="fill:#FFFFFF;" width="42.667" height="362.667"/>
	<rect x="352" y="96" style="fill:#FFFFFF;" width="64" height="42.667"/>
	<rect x="352" y="266.667" style="fill:#FFFFFF;" width="64" height="42.667"/>
</g>
<path d="M181.333,298.667c-52.928,0-96-43.061-96-96s43.072-96,96-96s96,43.061,96,96S234.261,298.667,181.333,298.667z
	 M181.333,128c-41.173,0-74.667,33.504-74.667,74.667s33.493,74.667,74.667,74.667S256,243.829,256,202.667S222.507,128,181.333,128
	z"/>
<path style="fill:#FFFFFF;" d="M213.333,186.667h-16v-16c0-8.843-7.157-16-16-16c-8.843,0-16,7.157-16,16v16h-16
	c-8.843,0-16,7.157-16,16s7.157,16,16,16h16v16c0,8.843,7.157,16,16,16c8.843,0,16-7.157,16-16v-16h16c8.843,0,16-7.157,16-16
	S222.176,186.667,213.333,186.667z"/>
<path style="fill:#3AADD9;" d="M458.667,96H416V32c0-11.787,9.547-21.333,21.333-21.333l0,0c11.787,0,21.333,9.547,21.333,21.333V96
	z"/>
<path d="M437.333,0c-17.643,0-32,14.357-32,32v53.333h-43.744c-4.96-24.309-26.507-42.667-52.256-42.667h-256
	C23.925,42.667,0,66.592,0,96v213.333c0,29.408,23.925,53.333,53.333,53.333h256c25.749,0,47.296-18.357,52.256-42.667h43.744
	v138.667c0,5.899,4.768,10.667,10.667,10.667h42.667c5.899,0,10.667-4.768,10.667-10.667V32C469.333,14.357,454.976,0,437.333,0z
	 M426.667,32c0-5.888,4.779-10.667,10.667-10.667S448,26.112,448,32v53.333h-21.333V32z M362.667,149.333h42.667V256h-42.667
	V149.333z M405.333,128h-42.667v-21.333h42.667V128z M309.333,341.333h-256c-17.643,0-32-14.357-32-32V96c0-17.643,14.357-32,32-32
	h256c17.643,0,32,14.357,32,32v42.667v128v42.667C341.333,326.976,326.976,341.333,309.333,341.333z M362.667,298.667v-21.333
	h42.667v21.333H362.667z M448,448h-21.333V309.333v-42.667v-128v-32H448V448z"/>
</svg>