<?xml version="1.0" ?>
<!-- Uploaded to: SVG Repo, www.svgrepo.com, Generator: SVG Repo Mixer Tools -->
<svg width="800px" height="800px" viewBox="0 0 32 32" xmlns="http://www.w3.org/2000/svg">
<defs>
<style>.cls-1{fill:#ff005c;}</style>
</defs>
<title/>
<g data-name="Layer 19" id="Layer_19">
<path d="M9,3V5h2V27a3,3,0,0,0,3,3h4a3,3,0,0,0,3-3V5h2V3ZM19,27a1,1,0,0,1-1,1H14a1,1,0,0,1-1-1V22.44l6,2.25ZM19,7H16V9h3v2H16v2h3v2H16v2h3v2H16v2h3v1.56l-6-2.25V5h6Z"/>
<path class="cls-1" d="M19,24.69V27a1,1,0,0,1-1,1H14a1,1,0,0,1-1-1V22.44Z"/>
</g>
</svg>