<?xml version="1.0" encoding="iso-8859-1"?>
<!-- Uploaded to: SVG Repo, www.svgrepo.com, Generator: SVG Repo Mixer Tools -->
<svg height="800px" width="800px" version="1.1" id="Layer_1" xmlns="http://www.w3.org/2000/svg" xmlns:xlink="http://www.w3.org/1999/xlink" 
	 viewBox="0 0 512 512" xml:space="preserve">
<polygon style="fill:#999999;" points="117.336,379.184 108.04,361.48 377.216,220.024 108.264,87.32 117.112,69.384 
	421.28,219.464 "/>
<path style="fill:#DB2B42;" d="M112.744,218.136l-9.232-12.192c-6.792-8.888-66.264-88.272-66.264-127.824
	C37.248,30.664,66.864,0,112.744,0s75.496,30.664,75.496,78.112c0,39.488-59.472,118.88-66.208,127.824L112.744,218.136z"/>
<circle style="fill:#FFFFFF;" cx="112.68" cy="78.632" r="24.448"/>
<path style="fill:#2D2D2D;" d="M399.256,361.464l-9.232-12.192c-6.792-8.888-66.264-88.272-66.264-127.824
	c0-47.448,29.616-78.112,75.496-78.112s75.496,30.664,75.496,78.112c0,39.488-59.472,118.88-66.208,127.824L399.256,361.464z"/>
<circle style="fill:#FFFFFF;" cx="399.192" cy="221.96" r="24.448"/>
<path style="fill:#8AD5DD;" d="M112.744,512l-9.232-12.192c-6.792-8.888-66.264-88.272-66.264-127.824
	c0-47.448,29.616-78.112,75.496-78.112s75.496,30.664,75.496,78.112c0,39.488-59.472,118.88-66.208,127.824L112.744,512z"/>
<circle style="fill:#FFFFFF;" cx="112.68" cy="372.504" r="24.448"/>
</svg>