<?xml version="1.0" encoding="iso-8859-1"?>
<!-- Uploaded to: SVG Repo, www.svgrepo.com, Generator: SVG Repo Mixer Tools -->
<svg height="800px" width="800px" version="1.1" id="Layer_1" xmlns="http://www.w3.org/2000/svg" xmlns:xlink="http://www.w3.org/1999/xlink" 
	 viewBox="0 0 512 512" xml:space="preserve">
<path style="fill:#FFCD54;" d="M512,256.006C512,397.402,397.394,512.004,256.004,512C114.606,512.004,0,397.402,0,256.006
	C-0.007,114.61,114.606,0,256.004,0C397.394,0,512,114.614,512,256.006z"/>
<path style="fill:#F4BA41;" d="M510.88,279.526c-0.128-0.127-0.252-0.258-0.383-0.383c-0.493-0.497-119.895-119.923-120.404-120.405
	c-12.061-12.16-29.006-19.778-47.792-19.778h-44.467c-0.095-0.107-0.128-0.243-0.229-0.346c-0.263-0.263-0.601-0.379-0.893-0.592
	c-0.213-0.292-38.979-39.28-39.243-39.543c-2.771-2.771-7.26-2.771-10.031,0l-42.554,42.554c-0.657,0.655-1.177,1.44-1.537,2.311
	c-0.717,1.733-0.717,3.686,0.001,5.421c0.361,0.87,0.88,1.655,1.536,2.31l11.89,11.89l0.001,0.002l19.047,19.046l7.709,7.71
	l62.73,62.73h-7.892c-0.147-0.144-0.329-0.252-0.478-0.394c-0.485-0.51-134.763-134.788-135.274-135.274
	c-7.757-8.148-18.639-13.292-30.752-13.292c-23.469,0-42.56,19.09-42.56,42.56c0,12.113,5.145,22.995,13.294,30.753
	c0.486,0.511,74.192,75.647,74.192,75.647c-36.506,0-66.206,28.637-66.206,63.84c0,17.833,7.639,33.961,19.906,45.554
	c0.494,0.497,0.975,1.002,1.485,1.484c0.494,0.497,146.654,146.681,147.164,147.164c0.128,0.129,0.258,0.256,0.386,0.387
	C402.133,499.71,499.707,402.137,510.88,279.526z"/>
<g>
	<path style="fill:#F4F6F9;" d="M380.133,330.48c-21.047,0-38.526,15.371-41.919,35.467H176.793
		c-28.685,0-52.019-22.277-52.019-49.653c0-27.376,23.334-49.653,52.019-49.653h165.509c36.506,0,66.206-28.637,66.206-63.84
		s-29.7-63.84-66.206-63.84H227.018l30.451-30.451c2.771-2.771,2.771-7.26,0-10.031c-2.771-2.771-7.26-2.771-10.031,0
		l-42.554,42.554c-0.657,0.655-1.177,1.44-1.537,2.311c-0.717,1.733-0.717,3.687,0,5.421c0.361,0.87,0.88,1.657,1.537,2.311
		l42.554,42.554c1.386,1.386,3.2,2.078,5.015,2.078s3.63-0.692,5.015-2.078c2.771-2.771,2.771-7.26,0-10.031l-30.451-30.451h115.284
		c28.685,0,52.019,22.277,52.019,49.653s-23.333,49.653-52.019,49.653H176.793c-36.506,0-66.206,28.637-66.206,63.84
		s29.7,63.84,66.206,63.84h161.422c3.393,20.096,20.871,35.467,41.919,35.467c23.469,0,42.56-19.091,42.56-42.56
		S403.602,330.48,380.133,330.48z M380.133,401.413c-15.645,0-28.373-12.725-28.373-28.373c0-15.648,12.729-28.373,28.373-28.373
		c15.645,0,28.373,12.725,28.373,28.373C408.507,388.688,395.778,401.413,380.133,401.413z"/>
	<path style="fill:#F4F6F9;" d="M174.427,146.053c0-23.469-19.091-42.56-42.56-42.56s-42.56,19.091-42.56,42.56
		s19.091,42.56,42.56,42.56C155.335,188.613,174.427,169.522,174.427,146.053z M103.493,146.053
		c0-15.648,12.729-28.373,28.373-28.373s28.373,12.725,28.373,28.373s-12.729,28.373-28.373,28.373
		C116.222,174.427,103.493,161.701,103.493,146.053z"/>
</g>
</svg>