<?xml version="1.0" encoding="iso-8859-1"?>
<!-- Uploaded to: SVG Repo, www.svgrepo.com, Generator: SVG Repo Mixer Tools -->
<svg height="800px" width="800px" version="1.1" id="Layer_1" xmlns="http://www.w3.org/2000/svg" xmlns:xlink="http://www.w3.org/1999/xlink" 
	 viewBox="0 0 512 512" xml:space="preserve">
<circle style="fill:#FEE187;" cx="256" cy="256" r="256"/>
<g>
	<path style="fill:#FFC61B;" d="M312.704,116.179l28.198,45.582l4.453,50.712l145.508,145.506C504.449,326.728,512,292.249,512,256
		c0-11.798-0.815-23.405-2.362-34.782L373.753,85.333L312.704,116.179z"/>
	<path style="fill:#FFC61B;" d="M339.097,301.627l-32.689,14.333l-6.735-6.672l-27.912,17.074l-65.193-65.189l-6.446,25.721
		l-0.045-0.045l-37.169,139.819l85.201,85.201c2.622,0.079,5.249,0.133,7.89,0.133c79.658,0,150.816-36.385,197.766-93.439
		L339.097,301.627z"/>
	<path style="fill:#FFC61B;" d="M475.793,387.3L351.692,263.437l-9.568,33.375L458.25,412.937
		C464.598,404.771,470.457,396.21,475.793,387.3z"/>
	<path style="fill:#FFC61B;" d="M489.786,360.438L351.747,222.117l-2.601,33.306l128.59,128.59
		C482.144,376.394,486.167,368.526,489.786,360.438z"/>
</g>
<path style="fill:#273B7A;" d="M101.643,304.137c0,44.799,61.266,122.53,61.266,122.53s61.264-79.831,61.264-122.53
	c0-33.835-27.429-61.264-61.264-61.264S101.643,270.302,101.643,304.137z"/>
<path style="fill:#121149;" d="M224.173,304.137c0-33.835-27.429-61.264-61.264-61.264v183.794
	C162.909,426.667,224.173,346.836,224.173,304.137z"/>
<path style="fill:#FFC61B;" d="M159.937,270.96l-7.121,14.429c-0.483,0.977-1.415,1.655-2.494,1.812l-15.924,2.313
	c-2.717,0.395-3.803,3.734-1.836,5.651l11.523,11.231c0.781,0.76,1.138,1.858,0.953,2.932l-2.72,15.86
	c-0.464,2.707,2.376,4.77,4.806,3.493l14.243-7.489c0.965-0.507,2.119-0.507,3.082,0l14.243,7.489
	c2.431,1.277,5.27-0.786,4.806-3.493l-2.72-15.86c-0.184-1.074,0.172-2.17,0.953-2.932l11.523-11.231
	c1.967-1.917,0.881-5.256-1.836-5.651l-15.924-2.313c-1.079-0.157-2.012-0.834-2.494-1.812l-7.121-14.429
	C164.664,268.498,161.152,268.498,159.937,270.96z"/>
<path style="fill:#EAA22F;" d="M193.255,295.167c1.967-1.917,0.881-5.256-1.836-5.651l-15.924-2.313
	c-1.079-0.157-2.012-0.834-2.494-1.812l-7.121-14.429c-0.633-1.281-1.884-1.881-3.113-1.827v51.698
	c0.577-0.024,1.158,0.086,1.684,0.364l14.243,7.489c2.431,1.277,5.27-0.786,4.806-3.493l-2.72-15.86
	c-0.184-1.074,0.172-2.172,0.953-2.932L193.255,295.167z"/>
<path style="fill:#38C6D9;" d="M299.672,121.104c0,33.404,45.684,91.367,45.684,91.367s45.684-59.526,45.684-91.367
	c0-25.231-20.452-45.684-45.684-45.684S299.672,95.873,299.672,121.104z M326.577,121.254c0-10.371,8.408-18.778,18.779-18.778
	c10.371,0,18.779,8.407,18.779,18.778s-8.408,18.779-18.779,18.779C334.984,140.035,326.577,131.625,326.577,121.254z"/>
<path style="fill:#02B2B2;" d="M391.039,121.104c0-25.229-20.454-45.684-45.684-45.684l-0.286,27.069
	c0.097-0.002,0.19-0.016,0.286-0.016c10.371,0,18.779,8.407,18.779,18.78c0,10.371-8.407,18.779-18.779,18.779
	c-0.097,0-0.19-0.012-0.286-0.014l0.286,72.452C345.355,212.471,391.039,152.945,391.039,121.104z"/>
<path style="fill:#386895;" d="M211.932,434.424h-20.687c-4.284,0-7.758-3.474-7.758-7.758s3.474-7.758,7.758-7.758h20.687
	c4.284,0,7.758,3.474,7.758,7.758S216.217,434.424,211.932,434.424z M232.581,433.94c-3.712,0-6.996-2.676-7.639-6.459
	c-0.717-4.222,2.124-8.228,6.349-8.947c5.292-0.898,10.126-3.379,13.979-7.17c3.053-3.005,7.964-2.967,10.969,0.088
	c3.005,3.055,2.967,7.964-0.088,10.969c-6.127,6.028-13.826,9.975-22.263,11.409C233.451,433.902,233.013,433.94,232.581,433.94z
	 M260.308,406.687c-0.474,0-0.957-0.043-1.439-0.134c-4.21-0.79-6.984-4.846-6.194-9.056c0.3-1.595,0.452-3.236,0.452-4.877v-14.341
	c0-4.284,3.474-7.758,7.758-7.758s7.758,3.474,7.758,7.758v14.341c0,2.6-0.241,5.203-0.717,7.739
	C267.224,404.085,263.968,406.687,260.308,406.687z M260.884,365.349c-4.284,0-7.758-3.474-7.758-7.758v-10.655
	c-0.002-4.127,0.6-8.209,1.789-12.135c1.243-4.101,5.577-6.418,9.673-5.175c4.101,1.243,6.418,5.573,5.175,9.673
	c-0.746,2.463-1.124,5.032-1.122,7.633v10.659C268.641,361.875,265.168,365.349,260.884,365.349z M273.823,327.982
	c-2.289,0-4.558-1.009-6.087-2.943c-2.66-3.36-2.091-8.239,1.267-10.897c6.727-5.325,14.807-8.413,23.364-8.933
	c4.305-0.252,7.952,2.998,8.214,7.275c0.259,4.275-2.998,7.954-7.275,8.214c-5.373,0.324-10.449,2.263-14.674,5.61
	C277.209,327.435,275.509,327.982,273.823,327.982z M313.516,320.619c-4.146,0-7.583-3.277-7.747-7.456
	c-0.165-4.28,3.17-7.887,7.451-8.054c5.384-0.209,10.5-2.038,14.793-5.285c3.413-2.588,8.282-1.914,10.867,1.503
	c2.586,3.415,1.912,8.283-1.503,10.868c-6.839,5.175-14.982,8.087-23.554,8.421C313.72,320.617,313.618,320.619,313.516,320.619z
	 M344.538,297.196c-0.8,0-1.612-0.124-2.412-0.386c-4.072-1.331-6.294-5.711-4.963-9.785c0.86-2.629,1.296-5.384,1.296-8.185v-9.911
	c0-4.284,3.474-7.758,7.758-7.758s7.758,3.474,7.758,7.758v9.912c0,4.441-0.695,8.816-2.064,13.007
	C350.842,295.119,347.803,297.196,344.538,297.196z M346.217,256c-4.284,0-7.758-3.474-7.758-7.758v-20.687
	c0-4.284,3.474-7.758,7.758-7.758s7.758,3.474,7.758,7.758v20.687C353.975,252.526,350.501,256,346.217,256z"/>
</svg>